<?xml version="1.0" encoding="utf-8"?>
<!-- Generator: Adobe Illustrator 21.0.0, SVG Export Plug-In . SVG Version: 6.00 Build 0)  -->
<svg version="1.1" id="Layer_1" xmlns="http://www.w3.org/2000/svg" xmlns:xlink="http://www.w3.org/1999/xlink" x="0px" y="0px"
	 viewBox="0 0 867.2 867.2" style="enable-background:new 0 0 867.2 867.2;" xml:space="preserve">
<style type="text/css">
	.st0{opacity:0.3;fill:#D4D9DD;}
	.st1{opacity:0.5;fill:#D4D9DD;}
	.st2{opacity:0.15;fill:#FDBF50;}
</style>
<path class="st1" d="M530.4,0H336.8c-53,0-103.9,21.1-141.4,58.6L58.6,195.4C21.1,232.9,0,283.8,0,336.8v193.5
	c0,53,21.1,103.9,58.6,141.4l136.8,136.8c37.5,37.5,88.4,58.6,141.4,58.6h193.5c53,0,103.9-21.1,141.4-58.6l136.8-136.8
	c37.5-37.5,58.6-88.4,58.6-141.4V336.8c0-53-21.1-103.9-58.6-141.4L671.8,58.6C634.3,21.1,583.4,0,530.4,0z"/>
</svg>
